<svg width="130" height="28" viewBox="0 0 130 28" fill="none" xmlns="http://www.w3.org/2000/svg">
<g filter="url(#filter0_dd_2337_16451)">
<rect width="130" height="28" rx="7" fill="white"/>
<rect x="-0.25" y="-0.25" width="130.5" height="28.5" rx="7.25" stroke="black" stroke-opacity="0.04" stroke-width="0.5"/>
<path d="M22.0557 19.1143C21.4802 19.1143 20.9766 18.9704 20.5449 18.6826C20.1175 18.3906 19.7853 17.978 19.5484 17.4448C19.3156 16.9116 19.1992 16.2832 19.1992 15.5596V15.5469C19.1992 14.819 19.3156 14.1885 19.5484 13.6553C19.7811 13.1221 20.1112 12.7116 20.5386 12.4238C20.966 12.1318 21.4717 11.9858 22.0557 11.9858C22.3731 11.9858 22.6693 12.0366 22.9444 12.1382C23.2194 12.2355 23.4627 12.3752 23.6743 12.5571C23.8859 12.7349 24.0531 12.9486 24.1758 13.1982H24.2774V9.40234H25.6612V19H24.2774V17.9146H24.1758C24.0404 18.1642 23.869 18.38 23.6616 18.562C23.4543 18.7397 23.2152 18.8773 22.9444 18.9746C22.6735 19.0677 22.3773 19.1143 22.0557 19.1143ZM22.4492 17.9336C22.8301 17.9336 23.1602 17.8384 23.4395 17.6479C23.7188 17.4575 23.9325 17.1846 24.0806 16.8291C24.2287 16.4694 24.3028 16.0462 24.3028 15.5596V15.5469C24.3028 15.056 24.2266 14.6328 24.0742 14.2773C23.9261 13.9219 23.7124 13.6489 23.4331 13.4585C23.1581 13.2638 22.8301 13.1665 22.4492 13.1665C22.0684 13.1665 21.7383 13.2638 21.459 13.4585C21.1839 13.6489 20.9723 13.9219 20.8242 14.2773C20.6804 14.6286 20.6084 15.0518 20.6084 15.5469V15.5596C20.6084 16.0505 20.6804 16.4736 20.8242 16.8291C20.9723 17.1846 21.1839 17.4575 21.459 17.6479C21.7383 17.8384 22.0684 17.9336 22.4492 17.9336ZM30.5196 19.1333C29.8468 19.1333 29.2691 18.9894 28.7867 18.7017C28.3043 18.4097 27.9319 17.9971 27.6695 17.4639C27.4114 16.9307 27.2823 16.3001 27.2823 15.5723V15.5659C27.2823 14.8465 27.4114 14.2181 27.6695 13.6807C27.9319 13.1432 28.3001 12.7243 28.774 12.4238C29.2522 12.1234 29.8108 11.9731 30.4498 11.9731C31.093 11.9731 31.6453 12.117 32.1065 12.4048C32.572 12.6925 32.9296 13.0967 33.1793 13.6172C33.429 14.1335 33.5538 14.7386 33.5538 15.4326V15.915H27.9806V14.9312H32.8683L32.2081 15.8452V15.293C32.2081 14.8021 32.1319 14.3958 31.9796 14.0742C31.8315 13.7484 31.6262 13.505 31.3639 13.3442C31.1015 13.1834 30.7989 13.103 30.4562 13.103C30.1134 13.103 29.8066 13.1877 29.5357 13.3569C29.2691 13.522 29.0576 13.7674 28.901 14.0933C28.7486 14.4191 28.6725 14.819 28.6725 15.293V15.8452C28.6725 16.298 28.7486 16.6852 28.901 17.0068C29.0533 17.3285 29.2691 17.5739 29.5484 17.7432C29.832 17.9124 30.1663 17.9971 30.5514 17.9971C30.8476 17.9971 31.1015 17.9569 31.3131 17.8765C31.5289 17.7918 31.7045 17.6882 31.8399 17.5654C31.9796 17.4427 32.0748 17.3221 32.1256 17.2036L32.151 17.1528H33.484L33.4713 17.21C33.412 17.4385 33.3084 17.667 33.1603 17.8955C33.0121 18.1198 32.8154 18.325 32.5699 18.5112C32.3287 18.6974 32.0367 18.8477 31.6939 18.9619C31.3554 19.0762 30.964 19.1333 30.5196 19.1333ZM35.1115 19V12.1064H36.4889V13.1475H36.5969C36.7661 12.7793 37.0158 12.4915 37.3459 12.2842C37.676 12.0768 38.0928 11.9731 38.5964 11.9731C39.3708 11.9731 39.9632 12.1953 40.3737 12.6396C40.7842 13.084 40.9894 13.7166 40.9894 14.5376V19H39.6056V14.8613C39.6056 14.2858 39.485 13.8584 39.2438 13.5791C39.0068 13.2956 38.6345 13.1538 38.1266 13.1538C37.7923 13.1538 37.5025 13.2279 37.257 13.376C37.0116 13.5199 36.8211 13.7272 36.6857 13.998C36.5545 14.2646 36.4889 14.5841 36.4889 14.9565V19H35.1115ZM45.7463 19.1333C45.0735 19.1333 44.4916 18.9894 44.0007 18.7017C43.5141 18.4139 43.1396 18.0034 42.8772 17.4702C42.6148 16.9328 42.4837 16.2959 42.4837 15.5596V15.5469C42.4837 14.8063 42.6148 14.1694 42.8772 13.6362C43.1438 13.103 43.5204 12.6925 44.0071 12.4048C44.498 12.117 45.0777 11.9731 45.7463 11.9731C46.4192 11.9731 46.9989 12.117 47.4856 12.4048C47.9723 12.6883 48.3468 13.0988 48.6091 13.6362C48.8757 14.1694 49.009 14.8063 49.009 15.5469V15.5596C49.009 16.2959 48.8757 16.9328 48.6091 17.4702C48.3468 18.0034 47.9723 18.4139 47.4856 18.7017C47.0032 18.9894 46.4234 19.1333 45.7463 19.1333ZM45.7463 17.978C46.1399 17.978 46.4742 17.8828 46.7493 17.6924C47.0243 17.4977 47.2338 17.2205 47.3777 16.8608C47.5216 16.5011 47.5935 16.0674 47.5935 15.5596V15.5469C47.5935 15.0348 47.5216 14.599 47.3777 14.2393C47.2338 13.8796 47.0243 13.6045 46.7493 13.4141C46.4742 13.2194 46.1399 13.1221 45.7463 13.1221C45.3528 13.1221 45.0185 13.2194 44.7434 13.4141C44.4684 13.6045 44.2568 13.8796 44.1087 14.2393C43.9648 14.599 43.8928 15.0348 43.8928 15.5469V15.5596C43.8928 16.0674 43.9648 16.5011 44.1087 16.8608C44.2568 17.2205 44.4684 17.4977 44.7434 17.6924C45.0185 17.8828 45.3528 17.978 45.7463 17.978ZM50.5858 19V12.1064H51.9696V19H50.5858ZM51.284 10.875C51.047 10.875 50.8439 10.7904 50.6746 10.6211C50.5054 10.4518 50.4207 10.2487 50.4207 10.0117C50.4207 9.77474 50.5054 9.57373 50.6746 9.40869C50.8439 9.23942 51.047 9.15479 51.284 9.15479C51.521 9.15479 51.7241 9.23942 51.8934 9.40869C52.0627 9.57373 52.1473 9.77474 52.1473 10.0117C52.1473 10.2487 52.0627 10.4518 51.8934 10.6211C51.7241 10.7904 51.521 10.875 51.284 10.875ZM56.3964 19.1333C55.842 19.1333 55.3596 19.0529 54.9491 18.8921C54.5387 18.7271 54.2128 18.5007 53.9716 18.2129C53.7304 17.9209 53.5886 17.5824 53.5463 17.1973V17.1846H54.9301V17.1973C55.019 17.4554 55.1882 17.6649 55.4379 17.8257C55.6876 17.9865 56.0177 18.0669 56.4281 18.0669C56.7117 18.0669 56.9592 18.0267 57.1708 17.9463C57.3866 17.8659 57.5559 17.7537 57.6786 17.6099C57.8014 17.466 57.8627 17.3009 57.8627 17.1147V17.1021C57.8627 16.8862 57.776 16.7043 57.6025 16.5562C57.429 16.408 57.1433 16.2874 56.7455 16.1943L55.641 15.9404C55.2094 15.8431 54.8518 15.7098 54.5683 15.5405C54.2848 15.3713 54.0753 15.1639 53.9399 14.9185C53.8044 14.6688 53.7367 14.3768 53.7367 14.0425V14.0361C53.7367 13.6341 53.851 13.2786 54.0795 12.9697C54.308 12.6566 54.6233 12.4132 55.0253 12.2397C55.4316 12.062 55.8949 11.9731 56.4154 11.9731C56.9402 11.9731 57.3972 12.0557 57.7865 12.2207C58.1801 12.3815 58.4911 12.6058 58.7196 12.8936C58.9482 13.1771 59.0836 13.5072 59.1259 13.8838V13.8901H57.8056V13.8774C57.7421 13.6362 57.5898 13.4352 57.3486 13.2744C57.1116 13.1136 56.7984 13.0332 56.4091 13.0332C56.1594 13.0332 55.9373 13.0734 55.7426 13.1538C55.5479 13.23 55.3935 13.3379 55.2792 13.4775C55.1692 13.613 55.1142 13.7738 55.1142 13.96V13.9727C55.1142 14.1165 55.1501 14.2435 55.2221 14.3535C55.2983 14.4593 55.4167 14.5545 55.5776 14.6392C55.7384 14.7196 55.9457 14.7915 56.1996 14.855L57.2978 15.1025C57.9579 15.2591 58.4488 15.4855 58.7704 15.7817C59.0963 16.078 59.2592 16.4757 59.2592 16.9751V16.9878C59.2592 17.411 59.1344 17.7855 58.8847 18.1113C58.635 18.4329 58.2944 18.6847 57.8627 18.8667C57.4353 19.0444 56.9465 19.1333 56.3964 19.1333ZM60.8359 19V12.1064H62.2197V19H60.8359ZM61.5342 10.875C61.2972 10.875 61.0941 10.7904 60.9248 10.6211C60.7555 10.4518 60.6709 10.2487 60.6709 10.0117C60.6709 9.77474 60.7555 9.57373 60.9248 9.40869C61.0941 9.23942 61.2972 9.15479 61.5342 9.15479C61.7712 9.15479 61.9743 9.23942 62.1436 9.40869C62.3128 9.57373 62.3975 9.77474 62.3975 10.0117C62.3975 10.2487 62.3128 10.4518 62.1436 10.6211C61.9743 10.7904 61.7712 10.875 61.5342 10.875ZM64.1392 19V12.1064H65.5167V13.1475H65.6246C65.7939 12.7793 66.0435 12.4915 66.3736 12.2842C66.7037 12.0768 67.1205 11.9731 67.6241 11.9731C68.3985 11.9731 68.991 12.1953 69.4014 12.6396C69.8119 13.084 70.0172 13.7166 70.0172 14.5376V19H68.6334V14.8613C68.6334 14.2858 68.5128 13.8584 68.2716 13.5791C68.0346 13.2956 67.6622 13.1538 67.1544 13.1538C66.8201 13.1538 66.5302 13.2279 66.2847 13.376C66.0393 13.5199 65.8489 13.7272 65.7135 13.998C65.5823 14.2646 65.5167 14.5841 65.5167 14.9565V19H64.1392ZM74.7677 21.4312C74.1838 21.4312 73.6759 21.3507 73.2443 21.1899C72.8169 21.0291 72.4783 20.8049 72.2287 20.5171C71.979 20.2293 71.8267 19.895 71.7716 19.5142L71.778 19.5015H73.1745L73.1808 19.5142C73.2401 19.7511 73.4072 19.9458 73.6823 20.0981C73.9574 20.2505 74.3255 20.3267 74.7868 20.3267C75.3538 20.3267 75.7961 20.1976 76.1134 19.9395C76.4351 19.6813 76.5959 19.3195 76.5959 18.854V17.502H76.4879C76.3525 17.7474 76.179 17.959 75.9674 18.1367C75.7559 18.3102 75.5146 18.4414 75.2438 18.5303C74.973 18.6191 74.6789 18.6636 74.3615 18.6636C73.7775 18.6636 73.2697 18.5239 72.838 18.2446C72.4106 17.9611 72.0806 17.5718 71.8478 17.0767C71.6193 16.5773 71.505 16.0039 71.505 15.3564V15.3438C71.505 14.6878 71.6214 14.1081 71.8542 13.6045C72.0869 13.0967 72.4191 12.701 72.8507 12.4175C73.2824 12.1297 73.7965 11.9858 74.3932 11.9858C74.7148 11.9858 75.0089 12.0366 75.2755 12.1382C75.5464 12.2397 75.7855 12.3836 75.9928 12.5698C76.2002 12.756 76.3716 12.9782 76.507 13.2363H76.5895V12.1064H77.967V18.8604C77.967 19.3809 77.8358 19.8337 77.5734 20.2188C77.3153 20.6038 76.9471 20.9022 76.4689 21.1138C75.9907 21.3254 75.4237 21.4312 74.7677 21.4312ZM74.7487 17.521C75.138 17.521 75.4723 17.43 75.7516 17.248C76.0309 17.0618 76.2446 16.8058 76.3927 16.48C76.5451 16.1541 76.6213 15.7775 76.6213 15.3501V15.3374C76.6213 14.9142 76.5451 14.5376 76.3927 14.2075C76.2446 13.8774 76.0309 13.6193 75.7516 13.4331C75.4723 13.2469 75.138 13.1538 74.7487 13.1538C74.3594 13.1538 74.0272 13.2469 73.7521 13.4331C73.4813 13.6193 73.2739 13.8774 73.13 14.2075C72.9862 14.5334 72.9142 14.91 72.9142 15.3374V15.3501C72.9142 15.7775 72.9862 16.1541 73.13 16.48C73.2739 16.8058 73.4813 17.0618 73.7521 17.248C74.0272 17.43 74.3594 17.521 74.7487 17.521ZM86.5096 19.2222C85.9129 19.2222 85.3839 19.1079 84.9227 18.8794C84.4614 18.6509 84.0932 18.3398 83.8182 17.9463C83.5431 17.5485 83.3823 17.1042 83.3358 16.6133L83.3294 16.5308H84.6688L84.6751 16.5815C84.7174 16.8481 84.819 17.0915 84.9798 17.3115C85.1448 17.5316 85.3607 17.7051 85.6273 17.832C85.8939 17.959 86.1922 18.0225 86.5223 18.0225C86.8989 18.0225 87.2311 17.9399 87.5189 17.7749C87.8066 17.6056 88.0309 17.375 88.1917 17.083C88.3568 16.791 88.4393 16.4546 88.4393 16.0737V16.061C88.4393 15.6844 88.3568 15.3501 88.1917 15.0581C88.0267 14.7661 87.8024 14.5397 87.5189 14.3789C87.2353 14.2139 86.9074 14.1313 86.535 14.1313C86.2599 14.1313 86.0039 14.1737 85.7669 14.2583C85.5342 14.3387 85.3268 14.4614 85.1448 14.6265C85.0644 14.7026 84.9883 14.7852 84.9163 14.874C84.8444 14.9587 84.7809 15.0539 84.7259 15.1597H83.4945L83.9515 9.84033H89.2835V11.0464H85.075L84.7957 13.9663H84.8973C85.0285 13.759 85.1914 13.5833 85.3861 13.4395C85.5849 13.2956 85.8092 13.1855 86.0589 13.1094C86.3086 13.0332 86.5731 12.9951 86.8524 12.9951C87.4279 12.9951 87.9357 13.1263 88.3758 13.3887C88.8201 13.651 89.1693 14.0107 89.4232 14.4678C89.6771 14.9248 89.804 15.4474 89.804 16.0356V16.0483C89.804 16.6704 89.6623 17.2205 89.3787 17.6987C89.0994 18.1769 88.7122 18.5514 88.2171 18.8223C87.7262 19.0889 87.1571 19.2222 86.5096 19.2222ZM94.7387 19.2222C94.032 19.2222 93.4268 19.0275 92.9232 18.6382C92.4197 18.2489 92.0325 17.6966 91.7616 16.9814C91.4908 16.262 91.3554 15.4093 91.3554 14.4233V14.4106C91.3554 13.4246 91.4908 12.5741 91.7616 11.8589C92.0325 11.1437 92.4197 10.5915 92.9232 10.2021C93.4268 9.81283 94.032 9.61816 94.7387 9.61816C95.4454 9.61816 96.0505 9.81283 96.5541 10.2021C97.0577 10.5915 97.4449 11.1437 97.7157 11.8589C97.9908 12.5741 98.1283 13.4246 98.1283 14.4106V14.4233C98.1283 15.4093 97.9908 16.262 97.7157 16.9814C97.4449 17.6966 97.0577 18.2489 96.5541 18.6382C96.0505 19.0275 95.4454 19.2222 94.7387 19.2222ZM94.7387 18.0352C95.1492 18.0352 95.4983 17.8892 95.786 17.5972C96.078 17.3052 96.3002 16.8905 96.4525 16.353C96.6091 15.8114 96.6874 15.1681 96.6874 14.4233V14.4106C96.6874 13.6659 96.6091 13.0247 96.4525 12.4873C96.3002 11.9499 96.078 11.5373 95.786 11.2495C95.4983 10.9575 95.1492 10.8115 94.7387 10.8115C94.3324 10.8115 93.9833 10.9575 93.6913 11.2495C93.4036 11.5373 93.1814 11.9499 93.0248 12.4873C92.8725 13.0247 92.7963 13.6659 92.7963 14.4106V14.4233C92.7963 15.1681 92.8725 15.8114 93.0248 16.353C93.1814 16.8905 93.4036 17.3052 93.6913 17.5972C93.9833 17.8892 94.3324 18.0352 94.7387 18.0352ZM101.711 14.7344C101.3 14.7344 100.947 14.6328 100.651 14.4297C100.359 14.2223 100.132 13.9325 99.9717 13.5601C99.8109 13.1834 99.7305 12.7391 99.7305 12.2271V12.2207C99.7305 11.7002 99.8109 11.2537 99.9717 10.8813C100.132 10.509 100.359 10.2212 100.651 10.0181C100.947 9.81494 101.3 9.71338 101.711 9.71338C102.121 9.71338 102.475 9.81494 102.771 10.0181C103.071 10.2212 103.3 10.509 103.457 10.8813C103.617 11.2537 103.698 11.7002 103.698 12.2207V12.2271C103.698 12.7391 103.617 13.1834 103.457 13.5601C103.3 13.9325 103.071 14.2223 102.771 14.4297C102.475 14.6328 102.121 14.7344 101.711 14.7344ZM101.711 13.8838C102.011 13.8838 102.244 13.7378 102.409 13.4458C102.578 13.1538 102.663 12.7476 102.663 12.2271V12.2207C102.663 11.696 102.578 11.2897 102.409 11.002C102.244 10.71 102.011 10.564 101.711 10.564C101.415 10.564 101.184 10.71 101.019 11.002C100.854 11.2897 100.771 11.696 100.771 12.2207V12.2271C100.771 12.7476 100.854 13.1538 101.019 13.4458C101.184 13.7378 101.415 13.8838 101.711 13.8838ZM102.663 19H101.476L107.684 9.84033H108.871L102.663 19ZM108.624 19.127C108.213 19.127 107.86 19.0254 107.563 18.8223C107.267 18.6149 107.039 18.325 106.878 17.9526C106.721 17.576 106.643 17.1296 106.643 16.6133V16.6069C106.643 16.0907 106.721 15.6463 106.878 15.2739C107.039 14.9015 107.267 14.6138 107.563 14.4106C107.86 14.2075 108.213 14.106 108.624 14.106C109.034 14.106 109.387 14.2075 109.684 14.4106C109.98 14.6138 110.206 14.9015 110.363 15.2739C110.524 15.6463 110.604 16.0907 110.604 16.6069V16.6133C110.604 17.1296 110.524 17.576 110.363 17.9526C110.206 18.325 109.98 18.6149 109.684 18.8223C109.387 19.0254 109.034 19.127 108.624 19.127ZM108.624 18.2764C108.924 18.2764 109.157 18.1304 109.322 17.8384C109.487 17.5464 109.569 17.138 109.569 16.6133V16.6069C109.569 16.0864 109.487 15.6823 109.322 15.3945C109.157 15.1025 108.924 14.9565 108.624 14.9565C108.323 14.9565 108.09 15.1025 107.925 15.3945C107.76 15.6823 107.678 16.0864 107.678 16.6069V16.6133C107.678 17.138 107.76 17.5464 107.925 17.8384C108.09 18.1304 108.323 18.2764 108.624 18.2764Z" fill="black"/>
</g>
<defs>
<filter id="filter0_dd_2337_16451" x="-8.5" y="-5.5" width="147" height="45" filterUnits="userSpaceOnUse" color-interpolation-filters="sRGB">
<feFlood flood-opacity="0" result="BackgroundImageFix"/>
<feColorMatrix in="SourceAlpha" type="matrix" values="0 0 0 0 0 0 0 0 0 0 0 0 0 0 0 0 0 0 127 0" result="hardAlpha"/>
<feOffset dy="3"/>
<feGaussianBlur stdDeviation="0.5"/>
<feColorMatrix type="matrix" values="0 0 0 0 0 0 0 0 0 0 0 0 0 0 0 0 0 0 0.04 0"/>
<feBlend mode="normal" in2="BackgroundImageFix" result="effect1_dropShadow_2337_16451"/>
<feColorMatrix in="SourceAlpha" type="matrix" values="0 0 0 0 0 0 0 0 0 0 0 0 0 0 0 0 0 0 127 0" result="hardAlpha"/>
<feOffset dy="3"/>
<feGaussianBlur stdDeviation="4"/>
<feColorMatrix type="matrix" values="0 0 0 0 0 0 0 0 0 0 0 0 0 0 0 0 0 0 0.12 0"/>
<feBlend mode="normal" in2="effect1_dropShadow_2337_16451" result="effect2_dropShadow_2337_16451"/>
<feBlend mode="normal" in="SourceGraphic" in2="effect2_dropShadow_2337_16451" result="shape"/>
</filter>
</defs>
</svg>
